<?xml version="1.0" standalone="no"?>
<!DOCTYPE svg PUBLIC "-//W3C//DTD SVG 20010904//EN"
 "http://www.w3.org/TR/2001/REC-SVG-20010904/DTD/svg10.dtd">
<svg version="1.0" xmlns="http://www.w3.org/2000/svg"
 width="300.000000pt" height="164.000000pt" viewBox="0 0 300.000000 164.000000"
 preserveAspectRatio="xMidYMid meet">
<metadata>
Created by potrace 1.10, written by Peter Selinger 2001-2011
</metadata>
<g transform="translate(0.000000,164.000000) scale(0.100000,-0.100000)"
fill="#000000" stroke="none">
<path d="M1230 1113 c-18 -107 -30 -113 -30 -15 0 48 -4 82 -10 82 -6 0 -10
-37 -11 -87 -1 -94 -4 -92 -34 32 l-14 60 5 -55 c2 -30 7 -71 11 -90 8 -51
-10 -27 -37 50 -13 36 -27 69 -31 74 -8 8 15 -84 36 -149 7 -20 7 -20 -10 0
-9 11 -30 46 -47 78 -44 82 -46 63 -4 -29 20 -42 35 -79 33 -80 -2 -2 -27 28
-56 66 -30 39 -55 70 -58 70 -5 0 22 -49 56 -100 17 -24 28 -46 25 -49 -2 -3
-34 24 -71 60 -36 35 -57 51 -45 34 11 -16 39 -48 61 -70 23 -21 41 -43 41
-47 0 -5 -35 14 -77 42 -83 55 -83 55 39 -56 l36 -33 16 23 c27 41 98 68 169
64 l62 -3 37 75 c21 41 38 82 37 90 0 8 -20 -23 -44 -70 -49 -94 -54 -91 -25
20 10 41 18 76 16 78 -2 2 -18 -36 -35 -85 l-31 -88 6 93 c3 50 4 92 1 92 -2
0 -10 -35 -17 -77z"/>
<path d="M1347 1049 l-57 -79 34 -35 c33 -33 35 -33 38 -12 2 12 14 27 28 34
14 7 45 31 70 54 34 31 38 37 15 23 -16 -9 -46 -29 -65 -44 -19 -15 -42 -31
-50 -35 -13 -8 -13 -7 0 12 8 12 35 44 58 72 24 28 39 51 34 51 -6 0 -35 -28
-65 -62 -31 -35 -58 -61 -60 -58 -3 3 15 38 40 78 25 40 44 74 42 76 -2 3 -30
-31 -62 -75z"/>
<path d="M1481 981 c-19 -10 -30 -21 -25 -24 6 -3 24 4 42 15 52 32 40 39 -17
9z"/>
<path d="M1130 928 c-58 -30 -95 -97 -85 -155 10 -61 17 -67 61 -56 39 10 38
12 -11 28 -19 6 -20 79 -2 115 14 27 62 59 73 48 4 -4 -6 -24 -22 -44 -55 -69
-56 -74 -22 -107 28 -29 29 -31 12 -44 -10 -7 -24 -13 -31 -13 -19 0 -16 -14
7 -35 24 -22 20 -25 59 52 l31 62 -44 3 -44 3 63 75 c35 41 61 78 59 82 -10
15 -60 8 -104 -14z"/>
<path d="M1227 878 l-37 -53 39 -5 39 -5 -53 -80 c-30 -44 -54 -84 -55 -89 0
-15 96 0 123 20 42 30 70 97 63 147 -10 62 -27 80 -61 67 -36 -14 -45 -4 -11
11 20 9 23 15 15 26 -17 20 -23 17 -62 -39z m80 -32 c1 -1 5 -16 8 -34 6 -38
-17 -95 -49 -117 -46 -33 -48 -6 -4 64 l31 51 -24 27 -24 26 30 -7 c16 -4 31
-9 32 -10z"/>
<path d="M760 900 c-23 -23 -27 -77 -6 -105 12 -16 31 -21 108 -25 87 -5 93
-6 96 -27 2 -13 0 -23 -5 -24 -4 0 -41 -2 -82 -4 -65 -2 -74 0 -78 16 -3 12
-14 19 -29 19 -19 0 -24 -5 -24 -23 0 -45 28 -57 127 -57 50 0 98 3 107 6 23
9 39 66 26 98 -13 35 -46 46 -136 46 -72 0 -74 1 -74 25 0 25 1 25 80 25 64 0
80 -3 80 -15 0 -9 9 -15 25 -15 31 0 34 31 5 60 -17 17 -33 20 -110 20 -77 0
-93 -3 -110 -20z"/>
<path d="M1400 807 c0 -75 4 -117 12 -125 8 -8 47 -12 110 -12 l98 0 0 26 0
25 -85 -3 -85 -3 0 103 0 102 -25 0 -25 0 0 -113z"/>
<path d="M1752 908 c-5 -7 -35 -64 -66 -125 l-56 -113 28 0 c26 0 32 9 80 106
l51 106 31 -61 30 -61 -49 0 c-45 0 -61 -10 -61 -36 0 -2 29 -4 65 -4 61 0 66
-2 75 -25 7 -19 17 -25 38 -25 l29 0 -64 125 c-59 116 -66 125 -92 125 -16 0
-33 -6 -39 -12z"/>
<path d="M1980 795 l0 -125 25 0 c23 0 25 4 25 40 l0 40 43 0 c37 0 48 -6 82
-40 31 -32 46 -40 74 -40 l35 0 -42 36 c-45 38 -52 54 -24 54 30 0 42 21 42
72 0 78 -17 88 -150 88 l-110 0 0 -125z m210 40 l0 -35 -80 0 -80 0 0 35 0 35
80 0 80 0 0 -35z"/>
<path d="M1333 661 c-33 -42 -85 -63 -148 -60 -30 1 -57 0 -60 -3 -8 -8 -57
-180 -52 -184 2 -3 17 31 32 73 28 78 53 122 42 73 -3 -14 -8 -56 -11 -95 l-6
-70 19 83 c10 45 21 85 25 89 3 3 6 -36 7 -88 1 -109 16 -87 18 26 2 83 12 71
31 -35 16 -90 24 -72 12 28 -5 40 -5 72 -2 72 4 0 17 -34 30 -76 13 -41 28
-78 33 -81 5 -3 7 3 4 13 -17 57 -38 147 -34 150 2 2 22 -31 45 -74 49 -90 55
-83 12 13 -16 37 -30 72 -30 78 0 6 25 -23 55 -63 61 -82 72 -84 24 -6 -18 28
-39 62 -47 76 -9 14 14 -3 49 -37 36 -35 68 -63 73 -63 5 0 -17 29 -48 64 -31
35 -56 67 -56 71 0 4 28 -13 63 -37 93 -67 99 -66 25 2 -38 34 -68 68 -68 76
0 21 -13 16 -37 -15z"/>
<path d="M958 616 c-42 -33 -75 -62 -73 -64 2 -2 31 15 64 37 93 64 102 60 34
-11 -69 -73 -85 -102 -25 -47 114 105 116 106 52 9 -20 -30 -40 -62 -44 -70
-10 -20 58 57 87 97 27 40 43 43 23 5 -32 -61 -65 -146 -50 -127 27 34 95 175
84 175 -5 0 -24 13 -42 28 l-33 29 -77 -61z"/>
<path d="M1658 619 c-21 -12 -25 -88 -6 -107 7 -7 33 -12 58 -12 51 0 70 13
70 47 0 19 -5 23 -30 23 -16 0 -33 0 -37 1 -4 0 -9 -4 -11 -10 -2 -6 8 -11 22
-11 14 0 26 -4 26 -10 0 -5 -18 -10 -40 -10 -39 0 -40 1 -40 36 l0 37 55 -6
c56 -6 71 4 36 23 -25 13 -81 13 -103 -1z"/>
<path d="M1812 568 l3 -63 58 -3 c46 -2 57 0 57 13 0 11 -11 15 -45 15 -34 0
-45 4 -45 16 0 12 9 15 42 12 27 -2 43 1 45 10 3 8 -10 12 -47 12 -31 0 -49 4
-45 10 3 6 26 10 51 10 32 0 44 4 44 15 0 12 -13 15 -60 15 l-61 0 3 -62z"/>
<path d="M2013 618 c-14 -19 -63 -106 -63 -112 0 -3 6 -6 13 -6 8 0 24 23 37
51 22 46 25 49 37 33 18 -25 16 -34 -6 -34 -11 0 -23 -4 -26 -10 -4 -6 7 -10
26 -10 19 0 37 -7 45 -17 27 -38 24 -2 -5 56 -32 62 -41 70 -58 49z"/>
<path d="M2130 565 c0 -37 4 -65 10 -65 6 0 10 9 10 20 0 14 7 20 23 20 13 0
32 -9 42 -20 10 -11 28 -20 39 -20 20 1 20 2 -4 21 -22 19 -23 22 -7 30 23 13
22 56 -2 69 -11 5 -40 10 -65 10 l-46 0 0 -65z m100 20 c0 -11 -11 -15 -40
-15 -29 0 -40 4 -40 15 0 11 11 15 40 15 29 0 40 -4 40 -15z"/>
</g>
</svg>
